<?xml version="1.0" encoding="UTF-8"?>
<svg version="1.1" xmlns="http://www.w3.org/2000/svg" width="148" height="44">
<path d="M0 0 C48.84 0 97.68 0 148 0 C148 14.52 148 29.04 148 44 C99.16 44 50.32 44 0 44 C0 29.48 0 14.96 0 0 Z " fill="#331E25" transform="translate(0,0)"/>
<path d="M0 0 C6 0 6 0 7.94140625 1.90625 C8.47636719 2.7621875 9.01132813 3.618125 9.5625 4.5 C10.14257812 5.40492187 10.72265625 6.30984375 11.3203125 7.2421875 C11.87460938 8.15226562 12.42890625 9.06234375 13 10 C13.51304688 10.80695312 14.02609375 11.61390625 14.5546875 12.4453125 C15.72187339 14.28511398 16.86386197 16.14086505 18 18 C18.33 12.06 18.66 6.12 19 0 C20.65 0 22.3 0 24 0 C24 9.24 24 18.48 24 28 C22.35 28 20.7 28 19 28 C16.9375 25.875 16.9375 25.875 15 23 C14.360625 22.071875 13.72125 21.14375 13.0625 20.1875 C10.66671969 16.48493043 8.33733647 12.73973835 6 9 C5.67 15.27 5.34 21.54 5 28 C3.35 28 1.7 28 0 28 C0 18.76 0 9.52 0 0 Z " fill="#CC915E" transform="translate(104,9)"/>
<path d="M0 0 C1.4540625 0.0309375 1.4540625 0.0309375 2.9375 0.0625 C4.44825416 3.97510327 5.94421908 7.89319813 7.4375 11.8125 C7.86675781 12.92367188 8.29601562 14.03484375 8.73828125 15.1796875 C9.14433594 16.24960937 9.55039063 17.31953125 9.96875 18.421875 C10.34580078 19.40639648 10.72285156 20.39091797 11.11132812 21.40527344 C11.9375 24.0625 11.9375 24.0625 11.9375 28.0625 C10.2875 28.0625 8.6375 28.0625 6.9375 28.0625 C6.2775 26.0825 5.6175 24.1025 4.9375 22.0625 C1.3075 22.0625 -2.3225 22.0625 -6.0625 22.0625 C-6.7225 24.0425 -7.3825 26.0225 -8.0625 28.0625 C-10.0425 28.0625 -12.0225 28.0625 -14.0625 28.0625 C-12.66017844 24.23429497 -11.25426567 20.40743069 -9.8449707 16.58178711 C-9.36578376 15.27941907 -8.88759007 13.97668515 -8.41040039 12.67358398 C-7.72541662 10.80357119 -7.03659463 8.93496573 -6.34765625 7.06640625 C-5.72709351 5.37753296 -5.72709351 5.37753296 -5.09399414 3.65454102 C-3.66948284 0.0748874 -3.66948284 0.0748874 0 0 Z " fill="#D2925D" transform="translate(88.0625,8.9375)"/>
<path d="M0 0 C1.65 0 3.3 0 5 0 C5.01458252 0.59014893 5.02916504 1.18029785 5.04418945 1.78833008 C5.11868844 4.46371229 5.21533995 7.13784892 5.3125 9.8125 C5.33505859 10.74126953 5.35761719 11.67003906 5.38085938 12.62695312 C5.41630859 13.51962891 5.45175781 14.41230469 5.48828125 15.33203125 C5.51446533 16.15421143 5.54064941 16.9763916 5.56762695 17.82348633 C6.09517693 20.47910918 6.81193578 21.43113258 9 23 C12.83266292 22.85909916 12.83266292 22.85909916 16 21 C16.15686249 19.44051458 16.25076639 17.87457332 16.31640625 16.30859375 C16.35830078 15.36435547 16.40019531 14.42011719 16.44335938 13.44726562 C16.48267578 12.45404297 16.52199219 11.46082031 16.5625 10.4375 C16.60568359 9.44041016 16.64886719 8.44332031 16.69335938 7.41601562 C16.79980298 4.9441585 16.90181928 2.4721969 17 0 C18.65 0 20.3 0 22 0 C22.08745946 3.3956697 22.14054444 6.79104773 22.1875 10.1875 C22.21263672 11.14720703 22.23777344 12.10691406 22.26367188 13.09570312 C22.35853221 22.23391556 22.35853221 22.23391556 19 26 C15.01675806 28.67993169 10.64036303 28.83543078 6 28 C3.24430553 25.81840855 1.56411253 24.12822506 0 21 C-0.08400529 19.40552536 -0.10727467 17.80759455 -0.09765625 16.2109375 C-0.09443359 15.26992188 -0.09121094 14.32890625 -0.08789062 13.359375 C-0.07951172 12.37453125 -0.07113281 11.3896875 -0.0625 10.375 C-0.05798828 9.38242187 -0.05347656 8.38984375 -0.04882812 7.3671875 C-0.03702145 4.9113984 -0.020554 2.45572896 0 0 Z " fill="#D0935F" transform="translate(31,9)"/>
<path d="M0 0 C7.26 0 14.52 0 22 0 C22 1.32 22 2.64 22 4 C19.36 4 16.72 4 14 4 C14 11.92 14 19.84 14 28 C12.02 28 10.04 28 8 28 C8 20.08 8 12.16 8 4 C5.36 4 2.72 4 0 4 C0 2.68 0 1.36 0 0 Z " fill="#C98B5B" transform="translate(6,9)"/>
<path d="M0 0 C4.95 0 9.9 0 15 0 C15 1.32 15 2.64 15 4 C11.7 4 8.4 4 5 4 C5 6.64 5 9.28 5 12 C7.97 12 10.94 12 14 12 C14 13.32 14 14.64 14 16 C11.03 16 8.06 16 5 16 C5 19.96 5 23.92 5 28 C3.35 28 1.7 28 0 28 C0 18.76 0 9.52 0 0 Z " fill="#D8955E" transform="translate(60,9)"/>
<path d="M0 0 C1.90318884 2.85478326 2.4619099 4.41941308 3.125 7.6875 C3.29257813 8.49574219 3.46015625 9.30398437 3.6328125 10.13671875 C3.75398438 10.75160156 3.87515625 11.36648437 4 12 C1.36 12 -1.28 12 -4 12 C-2.68 8.04 -1.36 4.08 0 0 Z " fill="#422429" transform="translate(87,14)"/>
<path d="M0 0 C1.98 0.495 1.98 0.495 4 1 C3.67 2.32 3.34 3.64 3 5 C1.68 4.67 0.36 4.34 -1 4 C-0.67 2.68 -0.34 1.36 0 0 Z " fill="#D9975F" transform="translate(135,32)"/>
</svg>
